PathFileType	4	(X/Y/Z)	\\Move.snu.ac.kr\motion\Animal\091204_091205_Bird\091205_bird\Project 2\Capture day 2\Session 1\pigeon_015.trc
DataRate	CameraRate	NumFrames	NumMarkers	Units	OrigDataRate	OrigDataStartFrame	OrigNumFrames
240.0	240.0	18	14	mm	240.0	238	2522
Frame#	Time	14MarkersBird:Head			14MarkersBird:C_back			14MarkersBird:Spine			14MarkersBird:L-shoulder			14MarkersBird:L-elbow			14MarkersBird:L-wrist			14MarkersBird:L-hand			14MarkersBird:R-shoulder			14MarkersBird:R-elbow			14MarkersBird:R-Wrist			14MarkersBird:R-hand			14MarkersBird:C_Tail			14MarkersBird:L-Tale			14MarkersBird:R-Tale			
		X1	Y1	Z1	X2	Y2	Z2	X3	Y3	Z3	X4	Y4	Z4	X5	Y5	Z5	X6	Y6	Z6	X7	Y7	Z7	X8	Y8	Z8	X9	Y9	Z9	X10	Y10	Z10	X11	Y11	Z11	X12	Y12	Z12	X13	Y13	Z13	X14	Y14	Z14	

1354	5.637	-1637.28625	959.81360	-289.70200	-1578.27075	961.33350	-300.43594	-1524.58655	953.99561	-303.04004	-1605.14514	961.10895	-272.56833	-1575.93701	981.36810	-289.00659	-1583.84778	1018.88367	-262.55688	-1564.56372	1041.40088	-268.28604	-1607.83069	957.05042	-314.03500	-1582.30371	981.87817	-311.88626	-1596.36414	1010.29443	-343.95163	-1572.50464	1040.03357	-358.00885	-1414.71289	896.05914	-296.60687	-1476.18811	943.58368	-213.66130	-1489.24329	924.32922	-403.72104	
1355	5.642	-1651.75366	954.91962	-287.80273	-1592.03101	956.39929	-298.00467	-1538.81616	948.14539	-300.33499	-1619.58752	956.11902	-270.18216	-1591.73376	977.52313	-283.91125	-1597.44470	1013.46198	-254.98036	-1581.27649	1038.82190	-260.63354	-1622.10217	951.57574	-312.84683	-1598.32971	976.99194	-312.60983	-1610.64490	1003.96271	-346.36005	-1590.94336	1037.63318	-359.65567	-1426.63916	896.59882	-292.63800	-1491.83386	941.30939	-210.72739	-1505.35205	915.62036	-401.35349	
1356	5.646	-1666.14331	950.08234	-285.91705	-1605.79358	951.59058	-295.49582	-1552.98340	942.45178	-297.71619	-1632.56042	950.61133	-269.00372	-1606.23718	973.23132	-277.78738	-1611.48376	1005.89899	-245.61447	-1597.63403	1033.06653	-247.92924	-1636.39575	946.09827	-311.57950	-1613.35925	971.50684	-314.46774	-1625.72034	994.80890	-350.31628	-1610.72278	1029.43457	-366.15720	-1439.18713	896.54645	-288.98682	-1507.42639	938.48730	-207.94931	-1520.80505	906.29468	-398.60455	
1357	5.650	-1680.49548	945.38123	-284.02039	-1619.62354	946.91821	-292.89542	-1567.12842	937.04877	-295.16177	-1646.56860	945.89331	-267.24252	-1620.00293	968.17731	-270.67395	-1626.25366	996.15924	-235.04219	-1614.07336	1023.85260	-232.03348	-1650.84241	940.54010	-310.11768	-1627.75378	965.14679	-316.82935	-1641.79114	983.03943	-354.92300	-1631.33289	1015.82190	-375.62177	-1452.52173	894.95569	-285.66275	-1522.92651	935.02142	-205.15958	-1535.31189	896.81732	-395.32892	
1358	5.654	-1694.85193	940.88318	-282.08542	-1633.58545	942.39307	-290.18951	-1581.29248	932.06976	-292.64972	-1660.86230	941.19043	-265.16534	-1633.88428	962.17468	-262.69510	-1642.13953	984.26154	-224.05882	-1631.44312	1010.97290	-215.01764	-1665.51990	934.86951	-308.43951	-1642.30701	957.77655	-319.28986	-1659.05225	969.02289	-359.05804	-1652.88342	997.43158	-385.47479	-1466.63110	891.23547	-282.61081	-1538.13708	930.65930	-202.28186	-1548.93884	887.50043	-391.54974	
1359	5.658	-1709.25879	936.60345	-280.10306	-1647.74414	938.02576	-287.36392	-1595.51611	927.64850	-290.15811	-1675.26685	936.34192	-262.85211	-1648.51257	955.17731	-254.22768	-1659.49829	970.32196	-213.65450	-1650.54980	994.50854	-198.69205	-1680.41663	929.24036	-306.53467	-1657.76868	949.42523	-321.65396	-1677.55249	953.23676	-361.57822	-1675.67700	975.13495	-393.17319	-1481.45618	885.34015	-279.72760	-1552.84314	925.20465	-199.35542	-1562.01697	878.70074	-387.43213	
1360	5.662	-1723.76648	932.49695	-278.07361	-1662.16284	933.82715	-284.40500	-1609.83936	923.91663	-287.66544	-1689.95215	931.46381	-260.21555	-1664.12231	947.25464	-245.89166	-1678.45264	954.68610	-204.88239	-1671.82837	974.89087	-184.63405	-1695.45569	923.88715	-304.41672	-1674.44458	940.23895	-323.61829	-1697.11169	936.31097	-361.51324	-1699.71375	950.14929	-396.70929	-1496.97375	877.75189	-276.92935	-1566.95996	918.71753	-196.51074	-1574.91614	870.86652	-383.22055	
1361	5.667	-1738.40808	928.48901	-275.98831	-1676.87280	929.80615	-281.31140	-1624.29138	920.95886	-285.16046	-1704.84937	926.58618	-257.39908	-1680.64124	938.58539	-238.32912	-1698.75708	938.02618	-198.66107	-1695.16333	952.91772	-174.27797	-1710.54590	918.95251	-302.13904	-1692.12756	930.46204	-324.63638	-1717.34473	919.11652	-358.26492	-1724.46240	924.12158	-394.89536	-1513.14978	869.28766	-274.24213	-1580.57019	911.55743	-193.93394	-1587.87463	864.40338	-379.16876	
1362	5.671	-1753.19324	924.50531	-273.83481	-1691.82202	926.01508	-278.22128	-1638.91345	918.57446	-282.70789	-1719.89490	921.82330	-254.60730	-1697.78699	929.49762	-231.98395	-1719.85889	921.32599	-195.56653	-1719.88232	929.77557	-168.76823	-1725.62793	914.44916	-299.76401	-1710.27844	920.49139	-324.20285	-1737.72510	902.77478	-351.77698	-1749.05066	898.90814	-387.42889	-1529.83130	860.85425	-271.83914	-1593.86157	904.22668	-191.79767	-1600.99548	859.51569	-375.50461	
1363	5.675	-1768.12549	920.47913	-271.60938	-1706.94519	922.55194	-275.52759	-1653.87622	916.15967	-280.48306	-1735.08484	917.33337	-251.97202	-1715.12500	920.44824	-227.00970	-1741.06885	905.75232	-195.65480	-1744.93872	907.02112	-168.63243	-1740.71118	910.31073	-297.32672	-1728.24695	910.90137	-322.27286	-1757.64343	888.43964	-342.60333	-1772.60022	876.22394	-374.88324	-1546.72815	853.18274	-269.94580	-1607.07776	897.09570	-190.14427	-1614.36292	856.14514	-372.41199	
1364	5.679	-1783.21326	916.35223	-269.32111	-1722.18542	919.30200	-273.30627	-1669.23608	913.43445	-278.48367	-1750.46326	913.22040	-249.49806	-1732.14893	911.92090	-223.31241	-1761.71301	892.46240	-198.38150	-1769.20850	886.45648	-173.52542	-1755.87439	906.45117	-294.84317	-1745.45422	902.27380	-319.32376	-1776.55615	877.03955	-331.84866	-1794.42932	857.47430	-358.71988	-1563.53040	846.61066	-268.66599	-1620.48743	890.26105	-188.84019	-1628.13672	853.94977	-369.98431	
1365	5.683	-1798.48071	912.07562	-266.99362	-1737.54407	916.20654	-271.20193	-1684.65918	910.47815	-276.49155	-1766.05493	909.46973	-247.13213	-1748.41223	904.31885	-220.65976	-1781.24170	882.38715	-202.66293	-1791.79626	869.85272	-182.15482	-1771.21399	902.78809	-292.34604	-1761.56262	894.98700	-316.02304	-1794.14636	869.11084	-320.98169	-1814.17786	843.61920	-341.16458	-1580.06458	841.05304	-267.88037	-1634.34131	883.63367	-187.65886	-1642.54419	852.28302	-368.14932	
1366	5.688	-1813.95581	907.63214	-264.65213	-1753.10229	913.19379	-269.15271	-1700.18604	907.23376	-274.47824	-1781.83997	905.96814	-244.82928	-1763.64417	897.92798	-218.73506	-1799.33948	876.04742	-207.03474	-1812.21326	858.51172	-192.38341	-1786.77844	899.24225	-289.88702	-1776.53125	889.19513	-312.90668	-1810.40442	864.68860	-311.51260	-1831.86816	834.93567	-324.76944	-1596.36768	836.17981	-267.29129	-1648.80396	877.12036	-186.40213	-1657.77808	850.28943	-366.64215	
1367	5.692	-1829.65454	903.03937	-262.29721	-1768.94775	910.05450	-267.08670	-1715.94238	903.67059	-272.43439	-1797.77502	902.54779	-242.55943	-1777.79065	892.96997	-217.20197	-1815.97070	873.41235	-210.01112	-1830.34045	852.75378	-201.60172	-1802.55786	895.72064	-287.49860	-1790.50256	884.95630	-310.29099	-1825.58716	863.31750	-304.59604	-1847.72009	830.89728	-311.71579	-1612.61792	831.67377	-266.55487	-1663.89111	870.74475	-184.97011	-1673.86511	847.18018	-365.06833	
1368	5.696	-1845.58069	898.31299	-259.88596	-1785.13806	906.56152	-264.92133	-1731.98572	899.83209	-270.32529	-1813.82007	899.02008	-240.29970	-1791.00964	889.62036	-215.86385	-1831.26868	873.88593	-210.62964	-1846.29626	851.64301	-207.44283	-1818.50842	892.09454	-285.18063	-1803.64819	882.29590	-308.26080	-1840.05652	864.23230	-300.72049	-1861.92175	830.27264	-303.22922	-1628.96545	827.45270	-265.41101	-1679.45142	864.66840	-183.36176	-1690.58850	842.56042	-363.04086	
1369	5.700	-1861.73608	893.46387	-257.37408	-1801.67139	902.59607	-262.68326	-1748.30371	895.78491	-268.12589	-1829.94336	895.20734	-238.05673	-1803.68945	887.91229	-214.78265	-1845.41223	876.52301	-208.80698	-1860.27576	853.39148	-208.55594	-1834.57373	888.24463	-282.89948	-1816.15894	881.16254	-306.58920	-1854.10889	866.60455	-299.67734	-1874.51648	831.54462	-299.52557	-1645.41003	823.59491	-263.76324	-1695.21545	859.11298	-181.61629	-1707.50696	836.64465	-360.33521	
1370	5.704	-1878.10315	888.53857	-254.79594	-1818.48132	898.16180	-260.47104	-1764.83105	891.56708	-265.83249	-1846.12524	890.99371	-235.89024	-1816.39905	887.63605	-214.25725	-1858.62988	880.41150	-205.24467	-1872.29968	856.32050	-205.02208	-1850.70984	884.14819	-280.58975	-1828.36975	881.35944	-304.69400	-1867.87756	869.79578	-300.78387	-1885.41565	833.56006	-300.14609	-1661.84924	820.00482	-261.68060	-1710.92578	854.28467	-179.75107	-1724.08765	830.20923	-356.99808	
1371	5.708	-1894.61768	883.61481	-252.25789	-1835.46765	893.32367	-258.34515	-1781.47925	887.16016	-263.45975	-1862.37317	886.37445	-233.89818	-1829.69043	888.29474	-214.67879	-1871.20959	884.93243	-201.09384	-1882.12097	859.73383	-198.20073	-1866.89380	879.91949	-278.15512	-1840.80383	882.50726	-301.80823	-1881.26123	873.46600	-303.09839	-1894.48254	836.07336	-304.21545	-1678.22473	816.27716	-259.30048	-1726.47644	850.38129	-177.73283	-1739.91931	824.28241	-353.34781	
